<?xml version="1.0" encoding="UTF-8"?>
<svg width="24px" height="24px" viewBox="0 0 24 24" version="1.1" xmlns="http://www.w3.org/2000/svg" xmlns:xlink="http://www.w3.org/1999/xlink">
    <title>inputs/text-editor/buttons/indent-increase</title>
    <g id="inputs/text-editor/buttons/indent-increase" stroke="none" stroke-width="1" fill="none" fill-rule="evenodd">
        <g id="baseline-format_indent_increase-24px">
            <path d="M3,21 L21,21 L21,19 L3,19 L3,21 Z M3,8 L3,16 L7,12 L3,8 Z M11,17 L21,17 L21,15 L11,15 L11,17 Z M3,3 L3,5 L21,5 L21,3 L3,3 Z M11,9 L21,9 L21,7 L11,7 L11,9 Z M11,13 L21,13 L21,11 L11,11 L11,13 Z" id="Shape" fill="#212121" fill-rule="nonzero"></path>
            <polygon id="Shape" points="0 0 24 0 24 24 0 24"></polygon>
        </g>
    </g>
</svg>